<?xml version="1.0" encoding="utf-8"?>
<!-- Generator: Adobe Illustrator 20.0.0, SVG Export Plug-In . SVG Version: 6.00 Build 0)  -->
<svg version="1.1" id="Layer_1" xmlns="http://www.w3.org/2000/svg" xmlns:xlink="http://www.w3.org/1999/xlink" x="0px" y="0px"
	 viewBox="0 0 216 216" style="enable-background:new 0 0 216 216;" xml:space="preserve">
<style type="text/css">
	.st0{fill:#DDE7E6;stroke:#647476;stroke-width:5;stroke-miterlimit:10;}
	.st1{fill:#EA8FBC;stroke:#647476;stroke-miterlimit:10;}
	.st2{fill:#DDE7E6;stroke:#647476;stroke-miterlimit:10;}
	.st3{fill:#FFDE98;stroke:#647476;stroke-miterlimit:10;}
	.st4{fill:#FBF8CB;stroke:#647476;stroke-miterlimit:10;}
	.st5{fill:#B3DBAF;stroke:#647476;stroke-miterlimit:10;}
	.st6{fill:#9FDDF9;stroke:#647476;stroke-miterlimit:10;}
	.st7{fill:#AA8FC3;stroke:#647476;stroke-miterlimit:10;}
	.st8{fill:none;stroke:#647476;stroke-width:5;stroke-miterlimit:10;}
</style>
<circle class="st0" cx="108" cy="108" r="104.2"/>
<polygon class="st1" points="134.8,124.7 116.9,90.5 152.6,90.5 "/>
<polygon class="st2" points="141.4,112 152.6,90.5 116.9,90.5 128.1,112 "/>
<polygon class="st3" points="99.1,124.7 81.2,90.5 116.9,90.5 "/>
<polygon class="st2" points="105.7,112 116.9,90.5 81.2,90.5 92.4,112 "/>
<polygon class="st4" points="63.4,124.7 45.5,90.5 81.2,90.5 "/>
<polygon class="st2" points="70,112 81.2,90.5 45.5,90.5 56.7,112 "/>
<polygon class="st5" points="81.2,91.3 99.1,125.5 63.4,125.5 "/>
<polygon class="st2" points="74.6,104 63.4,125.5 99.1,125.5 87.9,104 "/>
<polygon class="st6" points="116.9,91.3 134.8,125.5 99.1,125.5 "/>
<polygon class="st2" points="110.3,104 99.1,125.5 134.8,125.5 123.6,104 "/>
<polygon class="st7" points="152.6,91.3 170.5,125.5 134.8,125.5 "/>
<polygon class="st2" points="146,104 134.8,125.5 170.5,125.5 159.3,104 "/>
<path class="st1" d="M116.9,90.5h35.7V14.2c-11-5.2-23-8.6-35.7-9.6V90.5z"/>
<path class="st3" d="M108,4.2c-9.3,0-18.2,1.2-26.8,3.5v82.8h35.7V4.6C114,4.3,111,4.2,108,4.2z"/>
<path class="st4" d="M81.2,90.5V7.7C68.1,11.1,56,17.1,45.5,25v65.5H81.2z"/>
<path class="st5" d="M99.1,125.5H63.4v77.1c11,5.2,23,8.6,35.7,9.6V125.5z"/>
<path class="st6" d="M108,212.6c9.3,0,18.2-1.2,26.8-3.5v-83.6H99.1v86.7C102,212.4,105,212.6,108,212.6z"/>
<path class="st7" d="M134.8,125.5v83.6c13.1-3.5,25.2-9.4,35.7-17.3v-66.3H134.8z"/>
<circle class="st8" cx="108" cy="108" r="104.2"/>
</svg>
