<?xml version="1.0" encoding="utf-8"?>
<!-- Generator: Adobe Illustrator 20.0.0, SVG Export Plug-In . SVG Version: 6.00 Build 0)  -->
<svg version="1.1" id="Layer_1" xmlns="http://www.w3.org/2000/svg" xmlns:xlink="http://www.w3.org/1999/xlink" x="0px" y="0px"
	 viewBox="0 0 216 216" style="enable-background:new 0 0 216 216;" xml:space="preserve">
<style type="text/css">
	.st0{fill:#DDE7E6;stroke:#647476;stroke-width:5;stroke-miterlimit:10;}
	.st1{fill:#EA8FBC;stroke:#647476;stroke-miterlimit:10;}
	.st2{fill:#FFDE98;stroke:#647476;stroke-miterlimit:10;}
	.st3{fill:#FBF8CB;stroke:#647476;stroke-miterlimit:10;}
	.st4{fill:#B3DBAF;stroke:#647476;stroke-miterlimit:10;}
	.st5{fill:#AA8FC3;stroke:#647476;stroke-miterlimit:10;}
	.st6{fill:#DDE7E6;stroke:#647476;stroke-miterlimit:10;}
</style>
<circle class="st0" cx="108" cy="108" r="104.2"/>
<circle class="st1" cx="-286.7" cy="16.4" r="68.9"/>
<circle class="st2" cx="-286.7" cy="16.4" r="62.3"/>
<circle class="st3" cx="-286.7" cy="16.4" r="56.3"/>
<circle class="st4" cx="-286.7" cy="16.4" r="50.9"/>
<circle class="st5" cx="-153.4" cy="-56.9" r="17.1"/>
<circle class="st6" cx="-272.1" cy="169" r="41.7"/>
<circle class="st6" cx="-483.4" cy="216" r="47"/>
<g>
	<circle class="st5" cx="51.6" cy="94.4" r="14"/>
	<circle class="st5" cx="164.4" cy="121.6" r="14"/>
	<path class="st1" d="M112.2,105.7c-5.9-7.5-12.6-16-21.8-16H71.2c-0.8,0-1.5,0.6-1.5,1.5v6.2c0,0.8,0.6,1.5,1.5,1.5h19.2
		c4.7,0,9.7,6.3,14.5,12.4c5.8,7.3,11.8,14.9,19.9,14.9h5.4v2.8c0,0.6,0.3,1.1,0.8,1.4c0.5,0.2,1,0.2,1.5,0l12.9-7.4
		c0.5-0.3,0.8-0.8,0.8-1.4c0-0.6-0.3-1.1-0.8-1.4l-12.9-7.4c-0.5-0.2-1-0.2-1.5,0c-0.5,0.3-0.8,0.8-0.8,1.4v2.8H125
		C121.4,117,116.8,111.2,112.2,105.7z"/>
</g>
</svg>
