<?xml version="1.0" encoding="utf-8"?>
<!-- Generator: Adobe Illustrator 20.0.0, SVG Export Plug-In . SVG Version: 6.00 Build 0)  -->
<svg version="1.1" id="Layer_1" xmlns="http://www.w3.org/2000/svg" xmlns:xlink="http://www.w3.org/1999/xlink" x="0px" y="0px"
	 viewBox="0 0 216 216" style="enable-background:new 0 0 216 216;" xml:space="preserve">
<style type="text/css">
	.st0{fill:#647576;}
	.st1{fill:#AA8FC3;}
	.st2{fill:none;stroke:#647476;stroke-miterlimit:10;}
</style>
<path class="st0" d="M-152,44"/>
<g>
	<g>
		<path class="st1" d="M172.4,117.4c-1.7-0.6-3.1-1.8-3.1-2.6c-0.2-4.6-0.2-9.2,0-13.8c0-0.9,1.4-2,3.1-2.6
			c5.6-1.8,11.2-3.8,16.8-5.7c-2.1-11.2-6.5-21.6-12.7-30.6c-5.3,2.6-10.7,5.2-15.9,7.8c-1.6,0.8-3.5,0.9-4,0.4
			c-3.4-3.1-6.6-6.4-9.8-9.8c-0.6-0.6-0.4-2.4,0.4-4c2.7-5.3,5.3-10.6,7.8-15.9c-9.1-6.2-19.5-10.6-30.7-12.7
			c-2,5.6-3.9,11.2-5.7,16.8c-0.6,1.7-1.8,3.1-2.6,3.1c-4.6,0.2-9.2,0.2-13.8,0c-0.9,0-2-1.4-2.6-3.1c-1.8-5.6-3.7-11.2-5.7-16.8
			C82.7,30,72.3,34.3,63.2,40.5c2.6,5.3,5.2,10.6,7.8,15.9c0.8,1.6,0.9,3.5,0.4,4c-3.1,3.4-6.4,6.6-9.8,9.8c-0.6,0.6-2.4,0.4-4-0.4
			C52.4,67.2,47,64.6,41.7,62C35.5,71.1,31.1,81.5,29,92.7c5.6,2,11.2,3.9,16.8,5.7c1.7,0.6,3.1,1.8,3.1,2.6c0.2,4.6,0.2,9.2,0,13.8
			c0,0.9-1.4,2-3.1,2.6c-5.6,1.8-11.3,3.8-16.9,5.7c2.1,11.2,6.5,21.6,12.7,30.7c5.4-2.6,10.7-5.2,16-7.9c1.6-0.8,3.5-0.9,4-0.4
			c3.4,3.1,6.6,6.4,9.8,9.8c0.6,0.6,0.4,2.4-0.4,4c-2.7,5.3-5.3,10.7-7.9,16.1c9.1,6.2,19.5,10.6,30.7,12.7c2-5.6,3.9-11.3,5.8-17
			c0.6-1.7,1.8-3.1,2.6-3.1c4.6-0.2,9.2-0.2,13.8,0c0.9,0,2,1.4,2.6,3.1c1.9,5.7,3.8,11.3,5.8,17c11.2-2.1,21.6-6.5,30.7-12.7
			c-2.6-5.4-5.2-10.8-7.9-16.1c-0.8-1.6-0.9-3.5-0.4-4c3.1-3.4,6.4-6.6,9.8-9.8c0.6-0.6,2.4-0.4,4,0.4c5.3,2.7,10.7,5.3,16.1,7.9
			c6.2-9.1,10.6-19.5,12.7-30.7C183.7,121.2,178,119.3,172.4,117.4z M108,129.7c-13.4,0-24.2-10.9-24.2-24.2S94.6,81.2,108,81.2
			s24.2,10.9,24.2,24.2S121.4,129.7,108,129.7z"/>
	</g>
	<g>
		<path class="st2" d="M172.4,117.4c-1.7-0.6-3.1-1.8-3.1-2.6c-0.2-4.6-0.2-9.2,0-13.8c0-0.9,1.4-2,3.1-2.6
			c5.6-1.8,11.2-3.8,16.8-5.7c-2.1-11.2-6.5-21.6-12.7-30.6c-5.3,2.6-10.7,5.2-15.9,7.8c-1.6,0.8-3.5,0.9-4,0.4
			c-3.4-3.1-6.6-6.4-9.8-9.8c-0.6-0.6-0.4-2.4,0.4-4c2.7-5.3,5.3-10.6,7.8-15.9c-9.1-6.2-19.5-10.6-30.7-12.7
			c-2,5.6-3.9,11.2-5.7,16.8c-0.6,1.7-1.8,3.1-2.6,3.1c-4.6,0.2-9.2,0.2-13.8,0c-0.9,0-2-1.4-2.6-3.1c-1.8-5.6-3.7-11.2-5.7-16.8
			C82.7,30,72.3,34.3,63.2,40.5c2.6,5.3,5.2,10.6,7.8,15.9c0.8,1.6,0.9,3.5,0.4,4c-3.1,3.4-6.4,6.6-9.8,9.8c-0.6,0.6-2.4,0.4-4-0.4
			C52.4,67.2,47,64.6,41.7,62C35.5,71.1,31.1,81.5,29,92.7c5.6,2,11.2,3.9,16.8,5.7c1.7,0.6,3.1,1.8,3.1,2.6c0.2,4.6,0.2,9.2,0,13.8
			c0,0.9-1.4,2-3.1,2.6c-5.6,1.8-11.3,3.8-16.9,5.7c2.1,11.2,6.5,21.6,12.7,30.7c5.4-2.6,10.7-5.2,16-7.9c1.6-0.8,3.5-0.9,4-0.4
			c3.4,3.1,6.6,6.4,9.8,9.8c0.6,0.6,0.4,2.4-0.4,4c-2.7,5.3-5.3,10.7-7.9,16.1c9.1,6.2,19.5,10.6,30.7,12.7c2-5.6,3.9-11.3,5.8-17
			c0.6-1.7,1.8-3.1,2.6-3.1c4.6-0.2,9.2-0.2,13.8,0c0.9,0,2,1.4,2.6,3.1c1.9,5.7,3.8,11.3,5.8,17c11.2-2.1,21.6-6.5,30.7-12.7
			c-2.6-5.4-5.2-10.8-7.9-16.1c-0.8-1.6-0.9-3.5-0.4-4c3.1-3.4,6.4-6.6,9.8-9.8c0.6-0.6,2.4-0.4,4,0.4c5.3,2.7,10.7,5.3,16.1,7.9
			c6.2-9.1,10.6-19.5,12.7-30.7C183.7,121.2,178,119.3,172.4,117.4z M108,129.7c-13.4,0-24.2-10.9-24.2-24.2S94.6,81.2,108,81.2
			s24.2,10.9,24.2,24.2S121.4,129.7,108,129.7z"/>
	</g>
</g>
</svg>
