<?xml version="1.0" encoding="utf-8"?>
<!-- Generator: Adobe Illustrator 20.0.0, SVG Export Plug-In . SVG Version: 6.00 Build 0)  -->
<svg version="1.1" id="Layer_1" xmlns="http://www.w3.org/2000/svg" xmlns:xlink="http://www.w3.org/1999/xlink" x="0px" y="0px"
	 viewBox="0 0 216 216" style="enable-background:new 0 0 216 216;" xml:space="preserve">
<style type="text/css">
	.st0{fill:#DDE7E6;stroke:#647476;stroke-width:5;stroke-miterlimit:10;}
	.st1{fill:#647576;}
	.st2{fill:none;}
	.st3{fill:#DDE7E6;stroke:#647476;stroke-width:4;stroke-linecap:round;stroke-miterlimit:10;}
	.st4{fill:#647476;}
	.st5{fill:#DDE7E6;}
	.st6{fill:#647375;}
	.st7{fill:#DDE7E6;stroke:#647476;stroke-width:2;stroke-linecap:round;stroke-miterlimit:10;}
</style>
<circle class="st0" cx="108" cy="108" r="104.2"/>
<path class="st1" d="M121,108"/>
<line class="st2" x1="131.9" y1="120.8" x2="131.9" y2="120.8"/>
<path class="st1" d="M-152,44"/>
<g>
	<line class="st3" x1="117.9" y1="67" x2="117.9" y2="149"/>
	<line class="st3" x1="68.9" y1="67" x2="117.3" y2="67"/>
	<line class="st3" x1="68.9" y1="149" x2="117.3" y2="149"/>
</g>
<g>
	<rect x="68.9" y="67" class="st4" width="49" height="82"/>
	<circle class="st5" cx="108.8" cy="108" r="2.8"/>
	<g>
		<g>
			<path class="st6" d="M126.9,108.2c0-0.3,0.1-0.5,0.5-0.7l10-6.5c1,0.3,1.5,0.8,1.5,1.6c0,0.3-1.4,1.2-4.1,2.7
				c-1.7,0.9-3.3,1.8-5,2.7c1.1,0.7,2.6,1.6,4.5,2.6c2.3,1.2,3.8,2,4.6,2.5c0.2,0.6,0.3,0.9,0.3,0.9c0,0,0,0.1,0,0.1
				c-0.6,0.6-1,0.9-1.3,0.9c-0.3,0-2-1-5.2-2.9c-3.2-1.9-5-3.1-5.6-3.6C127,108.5,126.9,108.3,126.9,108.2z"/>
		</g>
		<line class="st7" x1="130" y1="108" x2="147.1" y2="108"/>
	</g>
</g>
</svg>
