<?xml version="1.0" encoding="utf-8"?>
<!-- Generator: Adobe Illustrator 20.0.0, SVG Export Plug-In . SVG Version: 6.00 Build 0)  -->
<svg version="1.1" id="Layer_1" xmlns="http://www.w3.org/2000/svg" xmlns:xlink="http://www.w3.org/1999/xlink" x="0px" y="0px"
	 viewBox="0 0 216 216" style="enable-background:new 0 0 216 216;" xml:space="preserve">
<style type="text/css">
	.st0{fill:#DDE7E6;stroke:#647476;stroke-width:5;stroke-miterlimit:10;}
	.st1{fill:#647576;}
	.st2{fill:#647476;stroke:#647476;stroke-width:5;stroke-miterlimit:10;}
	.st3{fill:none;}
	.st4{fill:none;stroke:#647476;stroke-width:5;stroke-miterlimit:10;}
	.st5{fill:#DDE7E6;}
	.st6{fill:#DDE7E6;stroke:#647476;stroke-width:2;stroke-miterlimit:10;}
</style>
<circle class="st0" cx="-194.7" cy="65.3" r="104.2"/>
<path class="st1" d="M-152,44"/>
<path class="st2" d="M206.5,104.4H9.5c-1.7,0-3-1.4-3-3V83.7c0-1.7,1.3-3,3-3h197c1.6,0,3,1.3,3,3v17.8
	C209.5,103.1,208.1,104.4,206.5,104.4z"/>
<path class="st1" d="M122.6,95.9"/>
<line class="st3" x1="134.8" y1="113.4" x2="134.8" y2="113.4"/>
<path class="st4" d="M133.5,80.1H82.5c-1.7,0-3-1.3-3-3v-9c0-1.7,1.3-3,3-3h51.1c1.6,0,3,1.3,3,3v9
	C136.5,78.8,135.2,80.1,133.5,80.1z"/>
<g>
	<path class="st5" d="M182,157.9c-49.3,0.6-98.6,0.6-147.8,0c-1.4,0-3-1.4-3.7-3c-6.1-15.8-14.1-31.5-23.9-47.3c-1-1.6-0.4-3,1.5-3
		c66.7-0.8,133.3-0.8,200,0c1.9,0,2.6,1.4,1.5,3c-9.9,15.8-17.9,31.5-23.9,47.3C185,156.5,183.4,157.9,182,157.9z"/>
	<path class="st4" d="M182,157.9c-49.3,0.6-98.6,0.6-147.8,0c-1.4,0-3-1.4-3.7-3c-6.1-15.8-14.1-31.5-23.9-47.3c-1-1.6-0.4-3,1.5-3
		c66.7-0.8,133.3-0.8,200,0c1.9,0,2.6,1.4,1.5,3c-9.9,15.8-17.9,31.5-23.9,47.3C185,156.5,183.4,157.9,182,157.9z"/>
</g>
<g>
	<path class="st6" d="M64.5,116.3h-4c-1.7,0-3-1.3-3-3v-10.4c0-1.7,1.3-3,3-3h4c1.7,0,3,1.3,3,3v10.4
		C67.5,114.9,66.1,116.3,64.5,116.3z"/>
	<path class="st6" d="M155.5,116.1h-4c-1.6,0-3-1.3-3-3v-10.4c0-1.7,1.4-3,3-3h4c1.6,0,3,1.3,3,3v10.4
		C158.5,114.8,157.2,116.1,155.5,116.1z"/>
</g>
</svg>
