<?xml version="1.0" encoding="utf-8"?>
<!-- Generator: Adobe Illustrator 20.0.0, SVG Export Plug-In . SVG Version: 6.00 Build 0)  -->
<svg version="1.1" id="Layer_1" xmlns="http://www.w3.org/2000/svg" xmlns:xlink="http://www.w3.org/1999/xlink" x="0px" y="0px"
	 viewBox="0 0 216 216" style="enable-background:new 0 0 216 216;" xml:space="preserve">
<style type="text/css">
	.st0{fill:#DDE7E6;stroke:#647476;stroke-width:5;stroke-miterlimit:10;}
	.st1{fill:#647576;}
	.st2{fill:none;}
</style>
<circle class="st0" cx="108" cy="108" r="104.2"/>
<path class="st1" d="M121,108"/>
<line class="st2" x1="131.9" y1="120.8" x2="131.9" y2="120.8"/>
<g>
	<circle class="st1" cx="108" cy="71.8" r="14.2"/>
	<ellipse class="st1" cx="108" cy="115.2" rx="18.1" ry="27.6"/>
	<path class="st1" d="M124.9,103.7c0,0,33,32.6,2.4,28.2c-30.6-4.4-9.3-1.3-9.3-1.3l1.4-7.9c0,0,19.9,8.3,4.1-12.4
		S124.9,103.7,124.9,103.7z"/>
	<path class="st1" d="M110.5,145.8c0,0-55.7-13-43.4,0s47.7,8.5,47.7,8.5L110.5,145.8z"/>
	<path class="st1" d="M121.3,154.8c0,0,38.1,5.6,27.6-5.6c-10.5-11.1-32.1-2.2-32.1-2.2L121.3,154.8z"/>
	<path class="st1" d="M91.6,103.7c0,0-33,32.6-2.4,28.2c30.6-4.4,9.3-1.3,9.3-1.3l-1.4-7.9c0,0-19.9,8.3-4.1-12.4
		S91.6,103.7,91.6,103.7z"/>
</g>
</svg>
