<?xml version="1.0" encoding="utf-8"?>
<!-- Generator: Adobe Illustrator 20.0.0, SVG Export Plug-In . SVG Version: 6.00 Build 0)  -->
<svg version="1.1" id="Layer_1" xmlns="http://www.w3.org/2000/svg" xmlns:xlink="http://www.w3.org/1999/xlink" x="0px" y="0px"
	 viewBox="0 0 216 216" style="enable-background:new 0 0 216 216;" xml:space="preserve">
<style type="text/css">
	.st0{fill:#99B2B8;stroke:#647375;stroke-width:5;stroke-miterlimit:10;}
	.st1{fill:#647375;}
</style>
<g>
	<circle class="st0" cx="108" cy="108" r="104.2"/>
	<g>
		<path class="st1" d="M145.4,107.1c0,1.6-0.9,3-2.8,4.2l-60.8,39.4c-5.9-1.9-8.9-5-8.9-9.4c0-1.6,8.2-7,24.6-16.2
			c10-5.5,20-11,30.1-16.4c-6.6-4.4-15.7-9.7-27.2-16c-13.8-7.4-23-12.4-27.7-15.3c-1.4-3.4-2.1-5.3-2.1-5.6
			c0.2-0.3,0.2-0.6,0.2-0.9c3.4-3.8,6.1-5.6,8-5.6c1.6,0,12,5.9,31.2,17.6c19.2,11.7,30.5,18.9,33.8,21.6
			C144.9,105.3,145.4,106.1,145.4,107.1z"/>
	</g>
</g>
</svg>
