<?xml version="1.0" encoding="utf-8"?>
<!-- Generator: Adobe Illustrator 20.0.0, SVG Export Plug-In . SVG Version: 6.00 Build 0)  -->
<svg version="1.1" id="Layer_1" xmlns="http://www.w3.org/2000/svg" xmlns:xlink="http://www.w3.org/1999/xlink" x="0px" y="0px"
	 viewBox="0 0 216 216" style="enable-background:new 0 0 216 216;" xml:space="preserve">
<style type="text/css">
	.st0{fill:#DDE7E6;stroke:#647476;stroke-width:5;stroke-miterlimit:10;}
	.st1{fill:#EA8FBC;stroke:#647476;stroke-miterlimit:10;}
	.st2{fill:#FFDE98;stroke:#647476;stroke-miterlimit:10;}
	.st3{fill:#FBF8CB;stroke:#647476;stroke-miterlimit:10;}
	.st4{fill:#B3DBAF;stroke:#647476;stroke-miterlimit:10;}
	.st5{fill:#AA8FC3;stroke:#647476;stroke-miterlimit:10;}
	.st6{fill:#DDE7E6;stroke:#647476;stroke-miterlimit:10;}
</style>
<circle class="st0" cx="108" cy="108" r="104.2"/>
<g>
	<circle class="st1" cx="-392" cy="72.7" r="68.9"/>
	<circle class="st2" cx="-392" cy="72.7" r="62.3"/>
	<circle class="st3" cx="-392" cy="72.7" r="56.3"/>
	<circle class="st4" cx="-392" cy="72.7" r="50.9"/>
	<circle class="st5" cx="-392" cy="72.7" r="46.1"/>
	<circle class="st6" cx="-392" cy="72.7" r="41.7"/>
</g>
<circle class="st6" cx="-483.4" cy="216" r="47"/>
<path class="st1" d="M129.1,96.7l6.6,0l0,3.5c0,0.7,0.4,1.3,1,1.7c0.6,0.3,1.3,0.3,1.9,0l16.1-9.3c0.6-0.3,1-1,1-1.7
	c0-0.7-0.4-1.3-1-1.7l-16.1-9.3c-0.6-0.3-1.3-0.3-1.9,0c-0.6,0.3-1,1-1,1.7l0,3.5l-6.7,0c-10.2,0-17.7,9.5-24.9,18.6
	c-6,7.6-12.2,15.5-18.1,15.5h-24c-1.1,0-1.9,0.9-1.9,1.9v7.8c0,1.1,0.9,1.9,1.9,1.9h24c11.5,0,19.8-10.6,27.2-20
	C118.9,103.9,124.6,96.7,129.1,96.7z"/>
<path class="st4" d="M154.8,123.4l-16.1-9.3c-0.6-0.3-1.3-0.3-1.9,0c-0.6,0.3-1,1-1,1.7l0,3.5l-6.6,0c-3.5,0-7.7-4.5-10.6-7.8
	l-7.8,8.7c4.4,5,10.6,10.8,18.4,10.8l6.7,0l0,3.5c0,0.7,0.4,1.3,1,1.7c0.3,0.2,0.6,0.3,1,0.3c0.3,0,0.7-0.1,1-0.3l16.1-9.3
	c0.6-0.3,1-1,1-1.7C155.8,124.4,155.4,123.7,154.8,123.4z"/>
<path class="st4" d="M86.2,85.1h-24c-1.1,0-1.9,0.9-1.9,1.9v7.8c0,1.1,0.9,1.9,1.9,1.9h24c4.3,0,8.8,4.5,11.8,7.9l7.7-8.7
	C101.5,91.3,94.8,85.1,86.2,85.1z"/>
</svg>
