<?xml version="1.0" encoding="utf-8"?>
<!-- Generator: Adobe Illustrator 20.0.0, SVG Export Plug-In . SVG Version: 6.00 Build 0)  -->
<svg version="1.1" id="Layer_1" xmlns="http://www.w3.org/2000/svg" xmlns:xlink="http://www.w3.org/1999/xlink" x="0px" y="0px"
	 viewBox="0 0 216 216" style="enable-background:new 0 0 216 216;" xml:space="preserve">
<style type="text/css">
	.st0{fill:#DDE7E6;stroke:#647476;stroke-width:5;stroke-miterlimit:10;}
	.st1{fill:#EA8FBC;stroke:#647476;stroke-miterlimit:10;}
	.st2{fill:#FFDE98;stroke:#647476;stroke-miterlimit:10;}
	.st3{fill:#FBF8CB;stroke:#647476;stroke-miterlimit:10;}
	.st4{fill:#B3DBAF;stroke:#647476;stroke-miterlimit:10;}
	.st5{fill:#AA8FC3;stroke:#647476;stroke-miterlimit:10;}
	.st6{fill:#DDE7E6;stroke:#647476;stroke-miterlimit:10;}
</style>
<circle class="st0" cx="108" cy="108" r="104.2"/>
<circle class="st1" cx="-286.7" cy="16.4" r="68.9"/>
<circle class="st2" cx="-286.7" cy="16.4" r="62.3"/>
<circle class="st3" cx="-286.7" cy="16.4" r="56.3"/>
<circle class="st4" cx="-286.7" cy="16.4" r="50.9"/>
<circle class="st5" cx="-153.4" cy="-56.9" r="17.1"/>
<circle class="st6" cx="-272.1" cy="169" r="41.7"/>
<circle class="st6" cx="-483.4" cy="216" r="47"/>
<g>
	<path class="st1" d="M144.1,118.2l-13.2-7.6c-0.5-0.3-1.1-0.3-1.6,0c-0.5,0.3-0.8,0.8-0.8,1.4l0,2.9l-5.4,0c-2.8,0-6.3-3.7-8.7-6.4
		l-6.4,7.1c3.6,4.1,8.6,8.8,15.1,8.8l5.4,0l0,2.9c0,0.6,0.3,1.1,0.8,1.4c0.2,0.1,0.5,0.2,0.8,0.2c0.3,0,0.5-0.1,0.8-0.2l13.2-7.6
		c0.5-0.3,0.8-0.8,0.8-1.4C144.9,119,144.6,118.5,144.1,118.2z"/>
	<circle class="st5" cx="53.2" cy="97.4" r="14"/>
	<circle class="st2" cx="162.8" cy="118.6" r="14"/>
	<path class="st1" d="M72.1,98.7l13,8c0.5,0.3,1.1,0.3,1.6,0c0.5-0.3,0.8-0.8,0.8-1.3l0.1-2.9l5.4,0.2c2.8,0.1,6.2,3.9,8.5,6.7
		l6.6-6.9c-3.5-4.2-8.3-9.1-14.8-9.3l-5.4-0.2l0.1-2.9c0-0.6-0.3-1.1-0.7-1.4c-0.2-0.1-0.5-0.2-0.8-0.2c-0.3,0-0.5,0.1-0.8,0.2
		L72.2,96c-0.5,0.3-0.8,0.8-0.8,1.3C71.3,97.9,71.6,98.4,72.1,98.7z"/>
</g>
</svg>
