<?xml version="1.0" encoding="utf-8"?>
<!-- Generator: Adobe Illustrator 20.0.0, SVG Export Plug-In . SVG Version: 6.00 Build 0)  -->
<svg version="1.1" id="Layer_1" xmlns="http://www.w3.org/2000/svg" xmlns:xlink="http://www.w3.org/1999/xlink" x="0px" y="0px"
	 viewBox="0 0 216 216" style="enable-background:new 0 0 216 216;" xml:space="preserve">
<style type="text/css">
	.st0{fill:#DDE7E6;stroke:#647476;stroke-width:5;stroke-miterlimit:10;}
	.st1{fill:#647476;stroke:#647576;stroke-miterlimit:10;}
	.st2{fill:#B3DBAF;stroke:#647576;stroke-miterlimit:10;}
	.st3{fill:#EA8FBC;stroke:#647576;stroke-miterlimit:10;}
	.st4{fill:#79A2CC;stroke:#647576;stroke-miterlimit:10;}
	.st5{fill:#C2544C;stroke:#647576;stroke-miterlimit:10;}
	.st6{fill:#E5C482;stroke:#647576;stroke-miterlimit:10;}
	.st7{fill:#AA8FC3;stroke:#647576;stroke-miterlimit:10;}
	.st8{fill:#EA8FBC;}
	.st9{fill:#B3DBAF;}
</style>
<circle class="st0" cx="108" cy="108" r="104.2"/>
<g>
	<line class="st1" x1="72.7" y1="59" x2="72.7" y2="157"/>
	<path class="st2" d="M72.7,163.5c-3.6,0-6.5-2.9-6.5-6.5V59c0-3.6,2.9-6.5,6.5-6.5s6.5,2.9,6.5,6.5v98
		C79.2,160.6,76.3,163.5,72.7,163.5z"/>
</g>
<g>
	<line class="st1" x1="143.3" y1="59" x2="143.3" y2="157"/>
	<path class="st3" d="M143.3,163.5c-3.6,0-6.5-2.9-6.5-6.5V59c0-3.6,2.9-6.5,6.5-6.5s6.5,2.9,6.5,6.5v98
		C149.8,160.6,146.9,163.5,143.3,163.5z"/>
</g>
<g>
	<line class="st1" x1="59" y1="143.3" x2="157" y2="143.3"/>
	<path class="st4" d="M157,149.8H59c-3.6,0-6.5-2.9-6.5-6.5s2.9-6.5,6.5-6.5h98c3.6,0,6.5,2.9,6.5,6.5S160.6,149.8,157,149.8z"/>
</g>
<g>
	<line class="st1" x1="59" y1="72.7" x2="157" y2="72.7"/>
	<path class="st5" d="M157,79.2H59c-3.6,0-6.5-2.9-6.5-6.5s2.9-6.5,6.5-6.5h98c3.6,0,6.5,2.9,6.5,6.5S160.6,79.2,157,79.2z"/>
</g>
<path class="st6" d="M110,163.5c-3.6,0-6.5-2.9-6.5-6.5V59c0-3.6,2.9-6.5,6.5-6.5s6.5,2.9,6.5,6.5v98
	C116.5,160.6,113.6,163.5,110,163.5z"/>
<path class="st7" d="M157,112.5H59c-3.6,0-6.5-2.9-6.5-6.5s2.9-6.5,6.5-6.5h98c3.6,0,6.5,2.9,6.5,6.5S160.6,112.5,157,112.5z"/>
<path class="st7" d="M157,112.5H59c-3.6,0-6.5-2.9-6.5-6.5s2.9-6.5,6.5-6.5h98c3.6,0,6.5,2.9,6.5,6.5S160.6,112.5,157,112.5z"/>
<rect x="136.8" y="97.5" class="st3" width="13" height="17.5"/>
<rect x="137.3" y="89.8" class="st8" width="12" height="9.5"/>
<rect x="137.3" y="109.8" class="st8" width="12" height="9.5"/>
<rect x="66.2" y="97.3" class="st2" width="13" height="16.7"/>
<rect x="66.7" y="89.8" class="st9" width="12" height="9.5"/>
<rect x="66.7" y="112.8" class="st9" width="12" height="9.5"/>
</svg>
